<?xml version="1.0" encoding="UTF-8"?>
<svg width="87px" height="119px" viewBox="0 0 87 119" version="1.1" xmlns="http://www.w3.org/2000/svg" xmlns:xlink="http://www.w3.org/1999/xlink">
    <title>Path</title>
    <g id="Site" stroke="none" stroke-width="1" fill="none" fill-rule="evenodd">
        <g id="Lets" transform="translate(-500.000000, -243.000000)" fill="#F14812" fill-rule="nonzero">
            <path d="M543.359375,361.734375 C570.078125,361.734375 586.796875,348.21875 586.796875,326.65625 C586.796875,309.703125 577.265625,300.328125 554.140625,294.9375 L541.71875,291.890625 C527.03125,288.453125 521.09375,283.84375 521.09375,275.796875 C521.09375,265.640625 530.3125,259 544.140625,259 C557.265625,259 566.328125,265.484375 567.96875,275.875 L585,275.875 C583.984375,256.890625 567.265625,243.53125 544.375,243.53125 C519.765625,243.53125 503.359375,256.890625 503.359375,276.96875 C503.359375,293.53125 512.65625,303.375 533.046875,308.140625 L547.578125,311.65625 C562.5,315.171875 569.0625,320.328125 569.0625,328.921875 C569.0625,338.921875 558.75,346.1875 544.6875,346.1875 C529.609375,346.1875 519.140625,339.390625 517.65625,328.6875 L500.3125,328.6875 C501.5625,348.84375 518.359375,361.734375 543.359375,361.734375 Z" id="Path"></path>
        </g>
    </g>
</svg>