<?xml version="1.0" encoding="UTF-8"?>
<svg width="52px" height="52px" viewBox="0 0 52 52" version="1.1" xmlns="http://www.w3.org/2000/svg" xmlns:xlink="http://www.w3.org/1999/xlink">
    <title>iconfinder_Emoji-25_5159530</title>
    <g id="Page-1" stroke="none" stroke-width="1" fill="none" fill-rule="evenodd">
        <g id="Surveys" transform="translate(-466.000000, -589.000000)" fill-rule="nonzero">
            <g id="iconfinder_Emoji-25_5159530" transform="translate(466.000000, 589.000000)">
                <path d="M26,0 C40.3594035,0 52,11.6405965 52,26 C52,40.3594035 40.3594035,52 26,52 C11.6405965,52 0,40.3594035 0,26 C0,11.6405965 11.6405965,0 26,0 L26,0 Z" id="Path" fill="#FFBF0B"></path>
                <path d="M37.4969496,33 C40.733738,33.0055836 43.7500302,31.3840061 45.497917,28.6986156 C47.2458038,26.0132251 47.484019,22.6346943 46.1298029,19.7367798 C40.6164205,17.4210734 34.3835753,17.4210734 28.8701929,19.7367798 C27.5164338,22.6337242 27.7540123,26.011037 29.5004387,28.6960801 C31.2468652,31.3811231 34.2612432,33.0035305 37.4969496,33 Z" id="Path" fill="#FFFFFF"></path>
                <path d="M37.6833873,18 C36.7240141,19.3690455 36.7792588,21.1743215 37.820688,22.4866914 C38.8621172,23.7990614 40.657626,24.3260353 42.2831048,23.796391 C43.9085836,23.2667468 45.0017592,21.7985271 45,20.1473928 C44.9965548,19.8459827 44.9544389,19.5461349 44.8746061,19.2546565 C42.5665188,18.4553606 40.136222,18.0313452 37.6833873,18 L37.6833873,18 Z" id="Path" fill="#54270A"></path>
                <path d="M13.5221511,33 C16.7543341,32.997367 19.7627203,31.3725716 21.504621,28.6887275 C23.2465217,26.0048834 23.4821667,22.6314176 22.129883,19.7375535 C19.4108696,18.5657739 16.4712424,17.9739399 13.5038627,18.0008801 C10.5364829,17.9739399 7.59685575,18.5657739 4.87784237,19.7375535 C4.29955008,20.958674 4,22.2899319 4,23.637557 C4,26.1247933 5.00399298,28.5098095 6.79044712,30.266295 C8.57690126,32.0227804 10.9989645,33.0063548 13.5221511,33 L13.5221511,33 Z" id="Path" fill="#FFFFFF"></path>
                <path d="M13.6781773,18 C12.7235341,19.3708832 12.7814506,21.1752538 13.8221911,22.4867041 C14.8629316,23.7981543 16.6552601,24.3253006 18.2789513,23.7974933 C19.9026426,23.2696859 20.9969381,21.8041953 21,20.1534401 C20.9955433,19.8516345 20.955517,19.5512929 20.8806907,19.2581897 C18.5686751,18.4577307 16.1347519,18.0325545 13.6781773,18 L13.6781773,18 Z" id="Path" fill="#54270A"></path>
                <path d="M33.5397147,39.7265083 C28.7507023,37.4244972 23.2238129,37.4244972 18.4348005,39.7265083 C17.2566668,40.3165413 18.7200329,43.4975889 19.8919659,42.9332094 C23.7626322,41.1122441 28.2056823,41.1122441 32.0763486,42.9332094 C33.2482816,43.4655218 34.7798554,40.3486083 33.5397147,39.7265083 Z" id="Path" fill="#54270A"></path>
            </g>
        </g>
    </g>
</svg>