<?xml version="1.0" encoding="UTF-8"?>
<svg width="296px" height="296px" viewBox="0 0 296 296" version="1.1" xmlns="http://www.w3.org/2000/svg" xmlns:xlink="http://www.w3.org/1999/xlink">
    <title>iconfinder_Emoji-12_5159517</title>
    <defs>
        <filter x="-165.1%" y="-165.1%" width="430.2%" height="430.2%" filterUnits="objectBoundingBox" id="filter-1">
            <feOffset dx="0" dy="21" in="SourceAlpha" result="shadowOffsetOuter1"></feOffset>
            <feGaussianBlur stdDeviation="26.5" in="shadowOffsetOuter1" result="shadowBlurOuter1"></feGaussianBlur>
            <feColorMatrix values="0 0 0 0 0   0 0 0 0 0   0 0 0 0 0  0 0 0 0.252480354 0" type="matrix" in="shadowBlurOuter1" result="shadowMatrixOuter1"></feColorMatrix>
            <feMerge>
                <feMergeNode in="shadowMatrixOuter1"></feMergeNode>
                <feMergeNode in="SourceGraphic"></feMergeNode>
            </feMerge>
        </filter>
    </defs>
    <g id="Page-1" stroke="none" stroke-width="1" fill="none" fill-rule="evenodd">
        <g id="Surveys" transform="translate(-566.000000, -418.000000)" fill-rule="nonzero">
            <g id="iconfinder_Emoji-12_5159517" filter="url(#filter-1)" transform="translate(671.000000, 523.000000)">
                <path d="M85.5,43 C85.5,66.4721019 66.4721019,85.5 43,85.5 C19.5278981,85.5 0.5,66.4721019 0.5,43 C0.5,19.5278981 19.5278981,0.5 43,0.5 C54.2717008,0.5 65.0817421,4.97766572 73.0520382,12.9479618 C81.0223343,20.9182579 85.5,31.7282992 85.5,43 Z" id="Path" fill="#FFBF0B"></path>
                <path d="M72.5057726,23.5100142 C72.0696453,21.035812 70.6026716,18.949849 68.3295233,18.3312984 C65.8449194,17.6732659 63.5717711,18.6274131 61.3647026,20.8515629 C60.1290087,17.4626955 58.2391237,14.9292704 55.2655286,13.665848 C52.5116434,12.3534595 49.2104295,13.1574117 47.3755894,15.5873029 C45.4328405,18.0417641 44.6597058,21.8122904 46.7147904,26.7738554 C48.6641473,31.3800829 57.3933011,40.7702067 57.6510127,41.04 C57.9880201,40.8294296 67.7149803,34.7755306 70.1004645,31.827545 C72.4859486,28.8795594 72.9352919,25.9710558 72.5057726,23.5100142 Z" id="Path" fill="#C63A2B"></path>
                <path d="M36.7790658,15.5906592 C34.9492999,13.1573278 31.6509623,12.3521098 28.901285,13.6674689 C25.9231801,14.9847225 24.0346258,17.4677457 22.7998018,20.8596739 C20.5942874,18.6466877 18.3227395,17.6587475 15.8134715,18.3371331 C13.5419237,18.9562423 12.0693796,21.0440894 11.6401627,23.5205263 C11.2109458,25.9969632 11.6929894,28.8817487 14.0173639,31.7994656 C16.3417385,34.7171824 26.1476936,40.8292394 26.4910671,41.04 C26.7419939,40.769963 35.4716051,31.3911169 37.4195894,26.7609703 C39.4930372,21.8212691 38.7204468,18.0473373 36.7790658,15.5906592 Z" id="Path" fill="#C63A2B"></path>
                <path d="M67.0800209,51.57 C67.085571,50.0829931 65.9763712,48.8276196 64.5,48.65 C57.4094415,47.3379212 50.2108142,46.6984153 43,46.74 L43,46.74 C35.7891635,46.6978783 28.5904858,47.3373888 21.5,48.65 C20.0236288,48.8276196 18.914429,50.0829931 18.9199791,51.57 C18.9199791,61.87 26.86,72.24 43,72.24 L43,72.24 C59.13,72.24 67.0800209,61.87 67.0800209,51.57 Z" id="Path" fill="#54270A"></path>
                <path d="M61,51.9 C49.0760769,49.9890604 36.9239231,49.9890604 25,51.9 C23.17,52.21 23.06,52.9 23.19,54.01 C23.2751994,54.7459327 23.3987003,55.4769244 23.56,56.2 C23.76,57.11 23.93,57.53 25.35,57.36 C28.07,57.04 57.89,57.04 60.61,57.36 C62.03,57.53 62.2,57.11 62.4,56.2 C62.6,55.29 62.7,54.63 62.78,54.01 C62.92,53 62.81,52.21 61,51.9 Z" id="Path" fill="#FFFFFF"></path>
            </g>
        </g>
    </g>
</svg>