<?xml version="1.0" encoding="UTF-8"?>
<svg width="40px" height="40px" viewBox="0 0 40 40" version="1.1" xmlns="http://www.w3.org/2000/svg" xmlns:xlink="http://www.w3.org/1999/xlink">
    <title>iconfinder_linkedin_circle_color_107178</title>
    <g id="Page-1" stroke="none" stroke-width="1" fill="none" fill-rule="evenodd">
        <g id="index" transform="translate(-150.000000, -726.000000)" fill="#007AB9">
            <g id="iconfinder_linkedin_circle_color_107178" transform="translate(150.000000, 726.000000)">
                <path d="M31.2246667,29.4246667 L31.2246667,21.6166667 C31.2246667,17.4333333 28.9913333,15.4866667 26.014,15.4866667 C23.6113333,15.4866667 22.5346667,16.8086667 21.9346667,17.736 L21.9346667,15.8066667 L17.408,15.8066667 C17.468,17.0846667 17.408,29.4246667 17.408,29.4246667 L21.9346667,29.4246667 L21.9346667,21.8193333 C21.9346667,21.4133333 21.964,21.0066667 22.084,20.716 C22.4106667,19.9026667 23.1553333,19.0606667 24.4053333,19.0606667 C26.044,19.0606667 26.6986667,20.3093333 26.6986667,22.1393333 L26.6986667,29.4253333 L31.2246667,29.4253333 L31.2246667,29.4246667 Z M12.6393333,13.948 C14.2173333,13.948 15.2006667,12.9013333 15.2006667,11.594 C15.1713333,10.2586667 14.2173333,9.242 12.6693333,9.242 C11.1213333,9.242 10.1086667,10.258 10.1086667,11.594 C10.1086667,12.9013333 11.0913333,13.948 12.6106667,13.948 L12.6393333,13.948 Z M20,40 C8.95466667,40 0,31.0453333 0,20 C0,8.954 8.95466667,0 20,0 C31.0453333,0 40,8.954 40,20 C40,31.0453333 31.0453333,40 20,40 Z M14.9026667,29.4246667 L14.9026667,15.8066667 L10.3766667,15.8066667 L10.3766667,29.4246667 L14.9026667,29.4246667 Z" id="Shape"></path>
            </g>
        </g>
    </g>
</svg>