<?xml version="1.0" encoding="UTF-8"?>
<svg width="40px" height="40px" viewBox="0 0 40 40" version="1.1" xmlns="http://www.w3.org/2000/svg" xmlns:xlink="http://www.w3.org/1999/xlink">
    <title>iconfinder_77-behance_104426</title>
    <g id="Page-1" stroke="none" stroke-width="1" fill="none" fill-rule="evenodd">
        <g id="index" transform="translate(-204.000000, -726.000000)" fill="#000000" fill-rule="nonzero">
            <g id="iconfinder_77-behance_104426" transform="translate(204.000000, 726.000000)">
                <path d="M27.8654971,17.9954516 C25.2875244,17.9954516 24.9293372,20.568551 24.9293372,20.568551 L30.4101932,20.568551 C30.4101932,20.568551 30.4450942,17.9954516 27.8654971,17.9954516 Z" id="Path"></path>
                <path d="M15.4304743,20.5685463 L10.5717999,20.5685463 L10.5717999,25.0292398 L14.8732943,25.0292398 C14.9463938,25.0292398 15.0560429,25.0308642 15.184373,25.0292398 C15.8763808,25.0129955 17.1881092,24.811566 17.1881092,22.8606238 C17.1881092,20.5449968 15.4304743,20.5685463 15.4304743,20.5685463 Z" id="Path"></path>
                <path d="M20.0008122,0 C8.95467836,0 0,8.95305393 0,19.9991878 C0,31.0453216 8.95467836,40 20.0008122,40 C31.0453216,40 40,31.0453216 40,19.9991878 C40,8.95386615 31.0445094,0 20.0008122,0 Z M24.2105263,12.2888239 L31.095679,12.2888239 L31.095679,14.3437297 L24.2105263,14.3437297 L24.2105263,12.2888239 L24.2105263,12.2888239 Z M20.7301819,23.068551 C20.7301819,28.1619558 15.4304743,27.9938272 15.4304743,27.9938272 L10.5717999,27.9938272 L10.4296621,27.9938272 L6.74626381,27.9938272 L6.74626381,11.3060429 L10.4296621,11.3060429 L10.5717999,11.3060429 L15.4304743,11.3060429 C18.068551,11.3060429 20.1510721,12.7631579 20.1510721,15.7488629 C20.1510721,18.7345679 17.6047758,18.9246264 17.6047758,18.9246264 C20.9616634,18.9246264 20.7301819,23.068551 20.7301819,23.068551 Z M33.6102989,22.7956465 L24.9626381,22.7956465 C24.9626381,25.8950617 27.8987979,25.70013 27.8987979,25.70013 C30.6717024,25.70013 30.5750487,23.904321 30.5750487,23.904321 L33.512833,23.904321 C33.512833,28.6695906 27.8005198,28.3430799 27.8005198,28.3430799 C20.948668,28.3430799 21.3897011,21.9631254 21.3897011,21.9631254 C21.3897011,21.9631254 21.3832034,15.5523067 27.8005198,15.5523067 C34.555718,15.5523067 33.6102989,22.7956465 33.6102989,22.7956465 Z" id="Shape"></path>
                <path d="M16.6106238,16.0079597 C16.6106238,14.2722547 15.4304743,14.2722547 15.4304743,14.2722547 L14.8050682,14.2722547 L10.5717999,14.2722547 L10.5717999,17.9954516 L15.1291423,17.9954516 C15.9153671,17.9954516 16.6106238,17.7428525 16.6106238,16.0079597 Z" id="Path"></path>
            </g>
        </g>
    </g>
</svg>