<svg width="20" height="20" viewBox="0 0 20 20" fill="none" xmlns="http://www.w3.org/2000/svg">
<g clip-path="url(#clip0_215_237)">
<path d="M9.655 4.38815C11.1819 4.38815 12.6206 5.06502 13.675 6.12315V6.12627C13.675 5.61815 14.0169 5.23377 14.4894 5.23377H14.6094C15.355 5.23377 15.5044 5.9369 15.5044 6.15877L15.5075 14.0556C15.4556 14.5731 16.0419 14.8406 16.3675 14.5081C17.6331 13.2063 19.15 7.80877 15.5794 4.68377C12.2494 1.7669 7.78 2.24877 5.40375 3.88627C2.87812 5.63127 1.26375 9.48565 2.83187 13.1081C4.54437 17.0575 9.44 18.2356 12.3537 17.0606C13.8287 16.465 14.5087 18.4563 12.9756 19.1081C10.665 20.0938 4.22562 19.9931 1.21812 14.785C-0.813751 11.2669 -0.706252 5.07815 4.685 1.8719C8.80562 -0.582476 14.2425 0.0975247 17.52 3.5194C20.945 7.10002 20.7469 13.7994 17.4031 16.4038C15.8887 17.5881 13.64 16.4363 13.6562 14.7106L13.6394 14.1481C12.585 15.1925 11.1819 15.805 9.655 15.805C6.63437 15.805 3.975 13.145 3.975 10.1275C3.975 7.07752 6.63437 4.3894 9.655 4.3894V4.38815ZM13.4544 9.9094C13.34 7.69877 11.6994 6.36752 9.71687 6.36752H9.64187C7.35687 6.36752 6.0875 8.16752 6.0875 10.2081C6.0875 12.4963 7.62062 13.9413 9.6325 13.9413C11.8781 13.9413 13.3525 12.2981 13.46 10.3544L13.4544 9.9094Z" fill="black"/>
</g>
<defs>
<clipPath id="clip0_215_237">
<rect width="20" height="20" fill="white"/>
</clipPath>
</defs>
</svg>
