<?xml version="1.0" encoding="UTF-8"?>
<svg width="30px" height="32px" viewBox="0 0 30 32" version="1.1" xmlns="http://www.w3.org/2000/svg" xmlns:xlink="http://www.w3.org/1999/xlink">
    <title>point-line</title>
    <defs>
        <linearGradient x1="95.5578512%" y1="82.6410715%" x2="39.5053024%" y2="35.6785371%" id="linearGradient-1">
            <stop stop-color="#FF6000" offset="0%"></stop>
            <stop stop-color="#9E5E45" offset="100%"></stop>
        </linearGradient>
    </defs>
    <g id="point-line" stroke="none" stroke-width="1" fill="none" fill-rule="evenodd">
        <g id="pin" transform="translate(1.000000, 3.000000)" fill-rule="nonzero">
            <path d="M15.7292222,18.9816208 C15.7490852,18.9415912 15.7618543,18.8974207 15.7802985,18.8546304 C15.8554942,18.6931318 15.9221771,18.5316332 15.976091,18.3618526 C15.9846037,18.3314854 15.9888601,18.3011181 15.9987916,18.2735115 C16.0541243,18.0879951 16.1005186,17.8999942 16.1378327,17.7103369 L16.1378327,17.6813499 C16.414496,16.0677442 15.9321087,14.2677939 14.8282929,12.6417513 L16.4031457,10.2758657 C18.2177735,10.5008595 19.7869511,10.0563932 20.5417455,8.92038165 C21.8512853,6.95617207 20.2579882,3.68617031 16.9876857,1.61429498 C13.7145456,-0.458961083 10.002958,-0.545921997 8.69625574,1.41552746 C7.93862383,2.55291938 8.1599545,4.13063657 9.11196014,5.65728154 L7.53426972,8.02316715 C5.56357549,7.70155026 3.68084601,8.00108187 2.28050389,8.90657835 C2.27199117,8.90933901 2.26205967,8.91209967 2.25638452,8.91762099 C2.09277008,9.02583886 1.93551181,9.14289084 1.78534746,9.26822481 C1.76122809,9.28754943 1.73285236,9.30549372 1.71298936,9.32481834 C1.57678587,9.44191173 1.44835733,9.56731471 1.32849826,9.7002681 C1.30012253,9.73339602 1.26039651,9.76238295 1.23343957,9.7968912 C1.08233883,9.9633866 0.944773302,10.1410627 0.821991532,10.3283182 C-1.14160309,13.2725759 0.533983579,17.7282812 4.55765597,20.279131 C8.58417162,22.8299808 13.439301,22.5069836 15.398645,19.5627397 C15.5220794,19.3763952 15.6355823,19.1817686 15.7292222,18.9816208 Z M14.5729113,5.23628089 C13.3144053,4.43983048 12.7000708,3.18373019 13.20374,2.42592902 C13.7060329,1.67088851 15.1347507,1.70539676 16.3903766,2.50184717 C17.6516777,3.29829758 18.260337,4.55715853 17.7595055,5.31219904 C17.2586739,6.06723955 15.8327936,6.0327313 14.5729113,5.23628089 Z" id="Shape" fill="url(#linearGradient-1)"></path>
            <path d="M3.1065503,21 L0,25.5212149 L0.330578903,27 L1.89491959,26.6842105 L5,22.1657779 C4.33228965,21.8327382 3.69847839,21.4423835 3.1065503,21 Z" id="Path" fill="#969696"></path>
        </g>
    </g>
</svg>